<svg width="18" height="14" viewBox="0 0 18 14" fill="none" xmlns="http://www.w3.org/2000/svg">
<path d="M2.00334 13.9167C1.545 13.9167 1.1525 13.7533 0.825838 13.4267C0.499171 13.1 0.336116 12.7078 0.336671 12.25V2.25C0.336671 1.79166 0.500005 1.39916 0.826671 1.0725C1.15334 0.74583 1.54556 0.582774 2.00334 0.58333H15.3367C15.795 0.58333 16.1875 0.746663 16.5142 1.07333C16.8408 1.4 17.0039 1.79222 17.0033 2.25V12.25C17.0033 12.7083 16.84 13.1008 16.5133 13.4275C16.1867 13.7542 15.7944 13.9172 15.3367 13.9167H2.00334ZM8.67 8.08333L15.3367 3.91666V2.25L8.67 6.41666L2.00334 2.25V3.91666L8.67 8.08333Z" fill="white"/>
</svg>
