<svg width="124" height="28" viewBox="0 0 124 28" fill="none" xmlns="http://www.w3.org/2000/svg">
<path d="M17.9745 23.7977C19.5154 23.1821 20.9004 22.2527 22.0348 21.0732C23.8609 19.1825 24.8243 16.1495 24.8243 16.1495C24.7929 16.4717 24.7424 16.7919 24.6733 17.1086C24.5739 17.5845 24.4425 18.0535 24.28 18.5128C24.106 19.027 23.9016 19.5312 23.6676 20.0228C23.395 20.6057 23.0726 21.1657 22.7037 21.6969C21.8255 22.8884 20.7103 23.8991 19.423 24.6701C18.527 25.1683 17.5699 25.5567 16.5743 25.8262C13.5318 26.6121 6.9833 26.4237 3.08011 21.6673C0.238937 18.2037 0.438278 14.3158 0.490666 13.5727C0.529446 13.0192 0.89752 8.78161 4.54766 5.56214C5.61497 4.62349 6.84128 3.86849 8.17324 3.33004C8.17067 2.97445 8.29922 2.62954 8.53598 2.35703C8.77275 2.08451 9.10227 1.90214 9.46556 1.84255C9.82896 1.78294 10.2024 1.84999 10.5192 2.0317C10.8359 2.21341 11.0754 2.49793 11.1947 2.83438C12.0954 2.76873 12.7956 2.7648 13.1452 2.79565C13.3521 2.81337 13.5916 2.84226 13.5916 2.84226C14.048 2.88957 14.4982 2.98043 14.936 3.11339C15.4846 3.25965 16.0081 3.48238 16.49 3.77449C17.2125 4.22486 17.2995 4.55768 18.2977 5.15904C18.4052 5.22403 18.4943 5.27458 18.5514 5.30612L18.942 5.4177C19.1311 5.47154 19.2318 5.49912 19.3182 5.5234C19.4807 5.56937 19.7121 5.63631 20.0027 5.72758C19.9325 5.8628 19.8734 5.97572 19.8298 6.0558C19.7414 6.22124 19.6733 6.34404 19.6733 6.34862C19.355 6.94401 18.8834 7.4504 18.3037 7.8192C17.7241 8.18799 15.7634 7.9511 14.936 7.8192C14.1086 7.68729 11.5097 7.0005 9.03188 8.61815C6.05052 10.5646 6.10563 14.0736 6.1247 14.5922C6.14105 15.0505 6.29411 17.8978 8.77264 19.8501C10.5966 21.2866 12.6064 21.3785 13.3215 21.4014C13.8618 21.4185 16.0463 21.4356 18.152 20.0228C19.102 19.3907 19.8926 18.5605 20.4653 17.5937C20.9996 16.6672 21.3023 15.6332 21.3497 14.5739C21.3726 13.8164 21.2575 13.0609 21.0096 12.3418C20.7646 11.7138 20.4384 11.1183 20.0386 10.5692C20.8824 13.1296 20.1068 15.2304 20.1068 15.2304C19.8876 15.8232 19.6012 16.5656 18.9032 17.3062C17.9975 18.266 16.7485 18.7255 16.2811 18.893C15.9234 19.0182 15.5575 19.1202 15.1857 19.1982C14.8995 19.2545 14.682 19.2783 14.3829 19.311L14.3693 19.3125C14.0759 19.3469 13.7804 19.3625 13.4848 19.3591C13.4848 19.3591 14.0434 19.254 14.5789 19.1195C15.653 18.8407 16.6438 18.3216 17.471 17.6043C17.9106 17.2176 18.6113 16.586 19.0148 15.5357C19.2755 14.8568 19.3024 14.289 19.3269 13.7718L19.327 13.769C19.3618 12.9478 19.2654 12.1263 19.0413 11.3333C18.8384 10.6116 18.5335 9.92012 18.1351 9.27857L18.565 9.32191C19.2312 9.41001 19.8903 9.54169 20.5381 9.71584C21.245 9.90613 21.7981 10.0598 22.443 10.438C22.7363 10.61 23.0282 10.7813 23.3276 11.0944C23.878 11.6714 24.0507 12.3083 24.1439 12.67C24.4392 13.8144 24.1971 14.7775 24.0079 15.493C23.7031 16.6452 23.2037 17.4375 22.8513 17.9877C22.3414 18.7854 21.7237 19.5139 21.0143 20.1541C19.2733 21.714 17.3336 22.3468 16.2178 22.616C14.7074 23.0135 13.1218 23.0661 11.5866 22.7699C10.0514 22.4736 8.60894 21.8365 7.37318 20.9091C5.68584 19.7274 4.86805 18.4026 4.4966 17.6824C3.37129 15.5015 3.45022 13.2623 3.49851 12.2033C3.51283 11.8966 3.52917 11.7096 3.52917 11.6853C3.20118 12.773 2.68008 15.0998 3.52163 17.7763C3.74616 18.4911 4.2435 20.0143 5.63826 21.4683C7.23234 23.13 9.05773 23.7182 10.0606 24.0287C11.2125 24.3853 14.4271 25.1875 17.9745 23.7977Z" fill="white"/>
</svg>
