<svg width="25" height="26" viewBox="0 0 25 26" fill="none" xmlns="http://www.w3.org/2000/svg">
<path d="M17.9745 22.7977C19.5154 22.1821 20.9004 21.2527 22.0348 20.0732C23.8609 18.1825 24.8243 15.1495 24.8243 15.1495C24.7929 15.4717 24.7424 15.7919 24.6733 16.1086C24.5739 16.5845 24.4425 17.0535 24.28 17.5128C24.106 18.027 23.9016 18.5312 23.6676 19.0228C23.395 19.6057 23.0726 20.1657 22.7037 20.6969C21.8255 21.8884 20.7103 22.8991 19.423 23.6701C18.527 24.1683 17.5699 24.5567 16.5743 24.8262C13.5318 25.6121 6.9833 25.4237 3.08011 20.6673C0.238937 17.2037 0.438278 13.3158 0.490666 12.5727C0.529446 12.0192 0.89752 7.78161 4.54766 4.56214C5.61497 3.62349 6.84128 2.86849 8.17324 2.33004C8.17067 1.97445 8.29922 1.62954 8.53598 1.35703C8.77275 1.08451 9.10227 0.902144 9.46556 0.842547C9.82896 0.782941 10.2024 0.849995 10.5192 1.0317C10.8359 1.21341 11.0754 1.49793 11.1947 1.83438C12.0954 1.76873 12.7956 1.7648 13.1452 1.79565C13.3521 1.81337 13.5916 1.84226 13.5916 1.84226C14.048 1.88957 14.4982 1.98043 14.936 2.11339C15.4846 2.25965 16.0081 2.48238 16.49 2.77449C17.2125 3.22486 17.2995 3.55768 18.2977 4.15904C18.4052 4.22403 18.4943 4.27458 18.5514 4.30612L18.942 4.4177C19.1311 4.47154 19.2318 4.49912 19.3182 4.5234C19.4807 4.56937 19.7121 4.63631 20.0027 4.72758C19.9325 4.8628 19.8734 4.97572 19.8298 5.0558C19.7414 5.22124 19.6733 5.34404 19.6733 5.34862C19.355 5.94401 18.8834 6.4504 18.3037 6.8192C17.7241 7.18799 15.7634 6.9511 14.936 6.8192C14.1086 6.68729 11.5097 6.0005 9.03188 7.61815C6.05052 9.56462 6.10563 13.0736 6.1247 13.5922C6.14105 14.0505 6.29411 16.8978 8.77264 18.8501C10.5966 20.2866 12.6064 20.3785 13.3215 20.4014C13.8618 20.4185 16.0463 20.4356 18.152 19.0228C19.102 18.3907 19.8926 17.5605 20.4653 16.5937C20.9996 15.6672 21.3023 14.6332 21.3497 13.5739C21.3726 12.8164 21.2575 12.0609 21.0096 11.3418C20.7646 10.7138 20.4384 10.1183 20.0386 9.56919C20.8824 12.1296 20.1068 14.2304 20.1068 14.2304C19.8876 14.8232 19.6012 15.5656 18.9032 16.3062C17.9975 17.266 16.7485 17.7255 16.2811 17.893C15.9234 18.0182 15.5575 18.1202 15.1857 18.1982C14.8995 18.2545 14.682 18.2783 14.3829 18.311L14.3693 18.3125C14.0759 18.3469 13.7804 18.3625 13.4848 18.3591C13.4848 18.3591 14.0434 18.254 14.5789 18.1195C15.653 17.8407 16.6438 17.3216 17.471 16.6043C17.9106 16.2176 18.6113 15.586 19.0148 14.5357C19.2755 13.8568 19.3024 13.289 19.3269 12.7718L19.327 12.769C19.3618 11.9478 19.2654 11.1263 19.0413 10.3333C18.8384 9.61156 18.5335 8.92012 18.1351 8.27857L18.565 8.32191C19.2312 8.41001 19.8903 8.54169 20.5381 8.71584C21.245 8.90613 21.7981 9.05983 22.443 9.43798C22.7363 9.60998 23.0282 9.78132 23.3276 10.0944C23.878 10.6714 24.0507 11.3083 24.1439 11.67C24.4392 12.8144 24.1971 13.7775 24.0079 14.493C23.7031 15.6452 23.2037 16.4375 22.8513 16.9877C22.3414 17.7854 21.7237 18.5139 21.0143 19.1541C19.2733 20.714 17.3336 21.3468 16.2178 21.616C14.7074 22.0135 13.1218 22.0661 11.5866 21.7699C10.0514 21.4736 8.60894 20.8365 7.37318 19.9091C5.68584 18.7274 4.86805 17.4026 4.4966 16.6824C3.37129 14.5015 3.45022 12.2623 3.49851 11.2033C3.51283 10.8966 3.52917 10.7096 3.52917 10.6853C3.20118 11.773 2.68008 14.0998 3.52163 16.7763C3.74616 17.4911 4.2435 19.0143 5.63826 20.4683C7.23234 22.13 9.05773 22.7182 10.0606 23.0287C11.2125 23.3853 14.4271 24.1875 17.9745 22.7977Z" fill="white"/>
</svg>
