<svg width="20" height="20" viewBox="0 0 20 20" fill="none" xmlns="http://www.w3.org/2000/svg">
<path d="M10.0336 0.982971C8.783 0.982971 7.54457 1.22931 6.38909 1.70793C5.23361 2.18655 4.18371 2.88806 3.29934 3.77243C1.51329 5.55849 0.509888 7.98092 0.509888 10.5068C0.509888 14.7163 3.24323 18.2877 7.02417 19.5544C7.50037 19.6306 7.65274 19.3354 7.65274 19.0783V17.4687C5.01466 18.0401 4.45274 16.1926 4.45274 16.1926C4.01466 15.0877 3.3956 14.7925 3.3956 14.7925C2.52894 14.202 3.46226 14.2211 3.46226 14.2211C4.41466 14.2877 4.9194 15.202 4.9194 15.202C5.74797 16.6497 7.14797 16.2211 7.69083 15.9926C7.77654 15.3734 8.02417 14.9543 8.29083 14.7163C6.17656 14.4782 3.95752 13.6591 3.95752 10.0306C3.95752 8.97345 4.3194 8.12583 4.93846 7.44965C4.84323 7.21155 4.50989 6.22108 5.03369 4.93536C5.03369 4.93536 5.83369 4.67822 7.65274 5.90679C8.40512 5.69726 9.22417 5.59251 10.0336 5.59251C10.8432 5.59251 11.6622 5.69726 12.4147 5.90679C14.2336 4.67822 15.0336 4.93536 15.0336 4.93536C15.5575 6.22108 15.2242 7.21155 15.1289 7.44965C15.7479 8.12583 16.1099 8.97345 16.1099 10.0306C16.1099 13.6686 13.8813 14.4686 11.7575 14.7068C12.1004 15.002 12.4147 15.583 12.4147 16.4687V19.0783C12.4147 19.3354 12.567 19.6401 13.0527 19.5544C16.8336 18.2783 19.5575 14.7163 19.5575 10.5068C19.5575 9.25611 19.3112 8.01766 18.8325 6.86218C18.354 5.70669 17.6523 4.65681 16.768 3.77243C15.8838 2.88806 14.8338 2.18655 13.6783 1.70793C12.5228 1.22931 11.2844 0.982971 10.0336 0.982971Z" fill="white"/>
</svg>
