<svg width="27" height="27" viewBox="0 0 27 27" fill="none" xmlns="http://www.w3.org/2000/svg">
<path d="M19.2602 23.9986C20.9113 23.3389 22.3954 22.3431 23.611 21.0792C25.5677 19.0532 26.6 15.8033 26.6 15.8033C26.5663 16.1485 26.5122 16.4916 26.4382 16.831C26.3317 17.3409 26.1909 17.8435 26.0168 18.3356C25.8303 18.8866 25.6113 19.4269 25.3606 19.9537C25.0685 20.5782 24.723 21.1783 24.3277 21.7475C23.3867 23.0242 22.1917 24.1072 20.8123 24.9334C19.8522 25.4672 18.8267 25.8834 17.7598 26.1722C14.4997 27.0143 7.48278 26.8124 3.30038 21.7158C0.255971 18.0044 0.469572 13.8384 0.525707 13.0422C0.567261 12.4491 0.961665 7.90835 4.87291 4.45858C6.01657 3.45278 7.3306 2.64377 8.75784 2.06681C8.75508 1.68578 8.89283 1.3162 9.14653 1.02419C9.40023 0.732179 9.75333 0.536769 10.1426 0.472909C10.532 0.409039 10.9321 0.480889 11.2716 0.675589C11.611 0.870299 11.8676 1.17517 11.9954 1.53569C12.9606 1.46535 13.7109 1.46113 14.0855 1.49419C14.3072 1.51318 14.5638 1.54413 14.5638 1.54413C15.0528 1.59483 15.5352 1.69219 16.0044 1.83466C16.5922 1.99138 17.1531 2.23005 17.6695 2.54305C18.4437 3.02564 18.5369 3.38226 19.6065 4.02664C19.7217 4.09628 19.8172 4.15045 19.8784 4.18424L20.2969 4.3038C20.4996 4.3615 20.6074 4.39105 20.7 4.41706C20.8742 4.46632 21.1221 4.53805 21.4335 4.63585C21.3583 4.78074 21.2949 4.90174 21.2482 4.98755C21.1535 5.16482 21.0805 5.29641 21.0805 5.30132C20.7395 5.9393 20.2341 6.48191 19.613 6.87709C18.9919 7.27226 16.8909 7.01843 16.0044 6.87709C15.1178 6.73574 12.333 5.99983 9.6779 7.73319C6.48327 9.8189 6.54233 13.5789 6.56276 14.1346C6.58028 14.6257 6.74429 17.6766 9.40011 19.7686C11.3546 21.3079 13.5081 21.4063 14.2744 21.4309C14.8533 21.4492 17.1941 21.4675 19.4504 19.9537C20.4684 19.2763 21.3155 18.3868 21.9292 17.3508C22.5017 16.358 22.8261 15.25 22.8769 14.115C22.9014 13.3033 22.7781 12.4937 22.5124 11.7232C22.2499 11.0503 21.9004 10.4122 21.472 9.8238C22.3761 12.5674 21.545 14.8184 21.545 14.8184C21.3102 15.4536 21.0033 16.2492 20.2553 17.0427C19.2849 18.0712 17.9465 18.5636 17.4457 18.743C17.0624 18.8772 16.6703 18.9865 16.2719 19.0701C15.9653 19.1304 15.7322 19.1559 15.4117 19.1909L15.3971 19.1925C15.0827 19.2294 14.7661 19.2461 14.4494 19.2425C14.4494 19.2425 15.0479 19.1299 15.6217 18.9857C16.7726 18.687 17.8343 18.1308 18.7207 17.3621C19.1917 16.9478 19.9426 16.271 20.3749 15.1456C20.6543 14.4181 20.6831 13.8097 20.7094 13.2555L20.7095 13.2525C20.7468 12.3726 20.6435 11.4923 20.4033 10.6426C20.1859 9.8692 19.8592 9.1283 19.4323 8.44085L19.893 8.48729C20.6068 8.5817 21.3131 8.7228 22.0072 8.9094C22.7647 9.1133 23.3573 9.278 24.0484 9.6832C24.3626 9.8675 24.6754 10.0511 24.9962 10.3866C25.586 11.0049 25.7711 11.6873 25.8709 12.0749C26.1874 13.3011 25.9279 14.3331 25.7252 15.0998C25.3986 16.3344 24.8635 17.1834 24.4859 17.773C23.9395 18.6277 23.2776 19.4084 22.5175 20.0943C20.6519 21.7658 18.5735 22.4439 17.3779 22.7323C15.7594 23.1583 14.0604 23.2147 12.4154 22.8973C10.7704 22.5798 9.22471 21.8971 7.90055 20.9033C6.09251 19.6371 5.21622 18.2175 4.8182 17.4458C3.61239 15.1089 3.69697 12.7095 3.74871 11.5748C3.76405 11.2462 3.78156 11.0458 3.78156 11.0197C3.43011 12.1853 2.87174 14.6785 3.77349 17.5465C4.01408 18.3124 4.54699 19.9445 6.04152 21.5026C7.74963 23.2831 9.7056 23.9134 10.7802 24.2461C12.0145 24.6282 15.4591 25.4878 19.2602 23.9986Z" fill="white"/>
</svg>
