<svg width="17" height="15" viewBox="0 0 17 15" fill="none" xmlns="http://www.w3.org/2000/svg">
<path d="M17.0074 2.3595C16.4036 2.63375 15.7528 2.81396 15.0787 2.90015C15.7685 2.48487 16.3017 1.82668 16.5525 1.03529C15.9019 1.42707 15.1805 1.70132 14.4201 1.85803C13.8005 1.18417 12.9303 0.792389 11.9424 0.792389C10.1 0.792389 8.5947 2.29682 8.5947 4.15384C8.5947 4.42025 8.62606 4.67883 8.68094 4.92172C5.8898 4.78068 3.40444 3.4408 1.75014 1.4114C1.46005 1.90504 1.2954 2.48487 1.2954 3.09604C1.2954 4.26354 1.88342 5.29783 2.7929 5.8855C2.23624 5.8855 1.71878 5.7288 1.26405 5.49372V5.51724C1.26405 7.14704 2.4244 8.51043 3.9611 8.81601C3.46773 8.95094 2.94979 8.96975 2.44792 8.87083C2.66087 9.5388 3.07793 10.1233 3.64045 10.5422C4.20298 10.9609 4.88269 11.1931 5.58403 11.2059C4.39516 12.1464 2.92148 12.655 1.40518 12.6476C1.1386 12.6476 0.87203 12.6319 0.605469 12.6005C2.09511 13.5566 3.86702 14.1128 5.76436 14.1128C11.9424 14.1128 15.3374 8.98836 15.3374 4.54562C15.3374 4.39675 15.3374 4.25571 15.3294 4.10683C15.988 3.6367 16.5525 3.04119 17.0074 2.3595Z" fill="white"/>
</svg>
